<svg xmlns="http://www.w3.org/2000/svg" xmlns:xlink="http://www.w3.org/1999/xlink" width="500" zoomAndPan="magnify" viewBox="0 0 375 374.999991" height="500" preserveAspectRatio="xMidYMid meet" version="1.0"><defs><filter x="0%" y="0%" width="100%" height="100%" id="300141949b"><feColorMatrix values="0 0 0 0 1 0 0 0 0 1 0 0 0 0 1 0 0 0 1 0" color-interpolation-filters="sRGB"/></filter><mask id="9e2272fce1"><g filter="url(#300141949b)"><rect x="-37.5" width="450" fill="#000000" y="-37.499999" height="449.999989" fill-opacity="0.28"/></g></mask><clipPath id="1ea66e691a"><path d="M 1 1 L 255.601562 1 L 255.601562 254 L 1 254 Z M 1 1 " clip-rule="nonzero"/></clipPath><clipPath id="1b4f0c6b1b"><rect x="0" width="256" y="0" height="254"/></clipPath><mask id="b5c963e25a"><g filter="url(#300141949b)"><rect x="-37.5" width="450" fill="#000000" y="-37.499999" height="449.999989" fill-opacity="0.1"/></g></mask><clipPath id="e5c847a5b6"><path d="M 1 1 L 127.921875 1 L 127.921875 209 L 1 209 Z M 1 1 " clip-rule="nonzero"/></clipPath><clipPath id="d5f29e12e6"><rect x="0" width="128" y="0" height="209"/></clipPath><mask id="d04f929ae2"><g filter="url(#300141949b)"><rect x="-37.5" width="450" fill="#000000" y="-37.499999" height="449.999989" fill-opacity="0.5"/></g></mask><clipPath id="f08c8e1903"><path d="M 1 1 L 129.839844 1 L 129.839844 254 L 1 254 Z M 1 1 " clip-rule="nonzero"/></clipPath><clipPath id="ec209e5214"><rect x="0" width="130" y="0" height="254"/></clipPath><mask id="1e8a1a39f5"><g filter="url(#300141949b)"><rect x="-37.5" width="450" fill="#000000" y="-37.499999" height="449.999989" fill-opacity="0.21"/></g></mask><clipPath id="e113fe5a77"><path d="M 0.320312 0.359375 L 110.960938 0.359375 L 110.960938 127.558594 L 0.320312 127.558594 Z M 0.320312 0.359375 " clip-rule="nonzero"/></clipPath><clipPath id="48e27f2f39"><rect x="0" width="111" y="0" height="128"/></clipPath><mask id="fa8992718c"><g filter="url(#300141949b)"><rect x="-37.5" width="450" fill="#000000" y="-37.499999" height="449.999989" fill-opacity="0.51"/></g></mask><clipPath id="f9003dfa1f"><path d="M 1 1 L 119 1 L 119 254 L 1 254 Z M 1 1 " clip-rule="nonzero"/></clipPath><clipPath id="072d0179c6"><rect x="0" width="120" y="0" height="254"/></clipPath><mask id="e48d87f83e"><g filter="url(#300141949b)"><rect x="-37.5" width="450" fill="#000000" y="-37.499999" height="449.999989" fill-opacity="0.42"/></g></mask><clipPath id="4c92a7b9f5"><path d="M 1 0.519531 L 150 0.519531 L 150 198 L 1 198 Z M 1 0.519531 " clip-rule="nonzero"/></clipPath><clipPath id="ee09878b85"><rect x="0" width="150" y="0" height="199"/></clipPath></defs><path fill="#d11d4d" d="M 392.425781 169.375 L 387.867188 124.351562 C 391.640625 123.390625 394.429688 119.980469 394.429688 115.90625 C 394.429688 111.230469 390.75 107.425781 386.128906 107.199219 L 383.601562 82.203125 C 385.824219 81.183594 387.320312 78.851562 387.089844 76.195312 C 386.847656 73.351562 384.5625 71.019531 381.726562 70.730469 C 380.226562 70.574219 378.820312 70.972656 377.691406 71.742188 C 371.527344 67.585938 359.714844 60.128906 344.25 52.699219 C 343.054688 52.125 341.824219 51.550781 340.558594 50.964844 C 340.980469 49.421875 341.03125 47.726562 340.410156 45.929688 C 339.25 42.582031 336.191406 40.152344 332.652344 39.949219 C 329.242188 39.757812 326.230469 41.53125 324.632812 44.234375 C 305.003906 36.699219 280.539062 30.082031 254.730469 29.824219 C 246.199219 29.753906 237.585938 30.585938 228.925781 32.308594 C 228.023438 32.488281 227.125 32.679688 226.214844 32.875 C 224.894531 29.738281 221.789062 27.535156 218.171875 27.535156 C 213.355469 27.535156 209.445312 31.441406 209.445312 36.261719 C 209.445312 36.730469 209.496094 37.1875 209.5625 37.636719 C 204.917969 39.269531 200.265625 41.144531 195.617188 43.289062 C 179.324219 50.800781 166.269531 59.957031 156.988281 67.578125 C 155.253906 66.304688 153.035156 65.648438 150.65625 65.964844 C 146.722656 66.488281 143.589844 69.699219 143.164062 73.644531 C 142.597656 78.898438 146.699219 83.34375 151.839844 83.34375 C 154.402344 83.34375 156.691406 82.226562 158.289062 80.472656 L 168.894531 87.527344 C 162.285156 89.074219 155.503906 91.292969 148.589844 94.242188 L 219.113281 134.550781 C 222.179688 136.304688 224.789062 138.761719 226.722656 141.71875 L 253.929688 183.269531 C 256.058594 186.519531 255.972656 190.742188 253.722656 193.90625 L 239.074219 214.46875 L 248.160156 193.835938 C 249.550781 190.675781 249.109375 187.011719 247.007812 184.28125 L 221.785156 151.480469 L 221.382812 150.953125 C 218.335938 146.863281 213.984375 143.933594 209.046875 142.664062 L 188.109375 137.257812 L 130 122.242188 C 129.996094 122.234375 129.992188 122.234375 129.992188 122.234375 C 129.992188 122.234375 129.992188 122.234375 129.992188 122.242188 C 129.992188 122.246094 129.992188 122.253906 129.996094 122.265625 C 133.785156 140.332031 141.519531 163.859375 138.039062 177.066406 C 134.554688 190.320312 115.207031 214.746094 104.917969 227.066406 C 101.945312 230.632812 103.546875 236.078125 107.988281 237.464844 C 114.265625 239.421875 122.125 242 126.535156 243.949219 C 131.007812 245.921875 129.855469 251.351562 127.902344 255.851562 C 126.308594 259.519531 128.40625 263.742188 132.277344 264.730469 L 141.878906 267.203125 L 134.535156 273.65625 C 132.617188 275.347656 132.785156 278.441406 134.933594 279.816406 C 139.351562 282.65625 144.484375 289.195312 140.441406 303.878906 C 133.96875 327.367188 150.527344 327.277344 191.941406 329.25 C 192.890625 329.292969 193.804688 329.367188 194.664062 329.46875 C 230.152344 333.734375 191.945312 385.847656 189.4375 389.210938 L 189.324219 389.363281 C 189.320312 389.367188 189.3125 389.378906 189.308594 389.382812 C 249.035156 351.019531 304.390625 336.652344 357.21875 336.152344 C 357.21875 336.152344 350.949219 323.488281 346.988281 307.496094 C 350.289062 306.390625 352.714844 303.375 352.933594 299.753906 C 353.226562 294.914062 349.246094 290.589844 344.394531 290.496094 C 342.761719 290.460938 341.226562 290.886719 339.910156 291.640625 L 302.808594 244.570312 C 303.003906 244.363281 303.1875 244.148438 303.359375 243.921875 L 338.507812 263.34375 C 337.929688 264.890625 337.757812 266.628906 338.210938 268.460938 C 339.105469 272.070312 342.257812 274.769531 345.957031 275.066406 C 351.105469 275.480469 355.410156 271.429688 355.410156 266.367188 C 355.410156 263.183594 353.695312 260.40625 351.144531 258.882812 C 355.210938 249.523438 360.882812 238.101562 366.757812 226.832031 C 367.746094 224.929688 368.746094 223.027344 369.742188 221.144531 C 370.800781 221.425781 371.980469 221.425781 373.230469 220.867188 C 375.050781 220.046875 376.347656 218.304688 376.480469 216.316406 C 376.597656 214.5625 375.867188 212.980469 374.671875 211.921875 C 380.265625 201.554688 385.433594 192.304688 388.871094 186.21875 C 390.121094 186.703125 391.507812 186.914062 392.964844 186.753906 C 397.210938 186.273438 400.5625 182.675781 400.722656 178.402344 C 400.894531 173.582031 397.152344 169.605469 392.425781 169.375 Z M 381.035156 82.753906 L 383.53125 107.460938 C 382.117188 107.824219 380.839844 108.535156 379.796875 109.496094 L 353.011719 87.996094 C 353.328125 87.308594 353.507812 86.550781 353.507812 85.746094 C 353.507812 85.597656 353.5 85.457031 353.488281 85.3125 L 375.566406 79.167969 C 376.5 81.265625 378.59375 82.734375 381.035156 82.753906 Z M 377.144531 117.632812 L 343.664062 129.820312 C 341.625 125.085938 338.046875 121.171875 333.554688 118.71875 L 346.726562 90.9375 C 347.175781 91.054688 347.644531 91.128906 348.128906 91.128906 C 349.347656 91.128906 350.472656 90.714844 351.378906 90.03125 L 378.160156 111.527344 C 377.410156 112.816406 376.972656 114.3125 376.972656 115.90625 C 376.972656 116.5 377.035156 117.074219 377.144531 117.632812 Z M 341.886719 151.308594 L 383.847656 174.976562 C 383.496094 175.90625 383.296875 176.902344 383.28125 177.945312 L 354.660156 181.839844 L 345.871094 183.03125 C 345.078125 181.050781 343.140625 179.652344 340.878906 179.652344 C 340.632812 179.652344 340.394531 179.671875 340.164062 179.699219 L 332.226562 159.746094 C 334.992188 158.457031 337.457031 156.640625 339.488281 154.417969 C 340.375 153.457031 341.179688 152.417969 341.886719 151.308594 Z M 339.46875 53.402344 C 356.363281 61.210938 369.238281 69.242188 375.882812 73.683594 C 375.375 74.539062 375.078125 75.535156 375.054688 76.601562 L 352.644531 82.835938 C 351.691406 81.351562 350.023438 80.371094 348.128906 80.371094 C 347.78125 80.371094 347.441406 80.40625 347.117188 80.46875 L 336.726562 56.082031 C 337.828125 55.402344 338.761719 54.488281 339.46875 53.402344 Z M 332.535156 57.371094 C 333.148438 57.34375 333.75 57.25 334.328125 57.105469 L 344.746094 81.566406 C 343.527344 82.554688 342.75 84.058594 342.75 85.746094 C 342.75 87.289062 343.40625 88.679688 344.445312 89.660156 L 331.195312 117.597656 C 329.632812 116.960938 327.980469 116.496094 326.265625 116.214844 Z M 325.695312 54.523438 C 326.8125 55.753906 328.277344 56.660156 329.9375 57.09375 L 323.671875 115.9375 C 323.292969 115.917969 322.917969 115.90625 322.539062 115.90625 C 316.589844 115.90625 311.171875 118.164062 307.089844 121.871094 L 278.222656 93.488281 C 279.660156 91.933594 280.539062 89.863281 280.539062 87.582031 C 280.539062 86.625 280.382812 85.707031 280.101562 84.851562 Z M 219.824219 261.523438 C 220.394531 261.730469 221.011719 261.847656 221.652344 261.847656 C 222.933594 261.847656 224.101562 261.402344 225.027344 260.65625 L 251.566406 280.71875 C 251.367188 281.191406 251.230469 281.707031 251.171875 282.238281 L 221.304688 286.3125 C 220.589844 284.40625 218.820312 283.011719 216.699219 282.847656 C 216.503906 276.082031 217.480469 268.917969 219.824219 261.523438 Z M 226.996094 255.851562 L 288.332031 241.804688 C 288.671875 242.671875 289.144531 243.476562 289.730469 244.179688 L 259.054688 278.078125 C 258.300781 277.675781 257.4375 277.445312 256.519531 277.445312 C 255.238281 277.445312 254.066406 277.894531 253.144531 278.640625 L 226.605469 258.578125 C 226.882812 257.929688 227.035156 257.214844 227.035156 256.472656 C 227.035156 256.261719 227.019531 256.054688 226.996094 255.851562 Z M 266.007812 334.5 C 241.8125 332.042969 223.019531 315.769531 217.996094 293.296875 C 219.90625 292.652344 221.332031 290.960938 221.605469 288.910156 L 251.527344 284.824219 C 252.320312 286.804688 254.253906 288.207031 256.519531 288.207031 C 256.546875 288.207031 256.570312 288.199219 256.59375 288.199219 L 267.78125 330.40625 C 266.691406 331.390625 266.003906 332.8125 266.003906 334.394531 C 266.003906 334.433594 266.007812 334.46875 266.007812 334.5 Z M 259.117188 287.535156 C 260.773438 286.617188 261.898438 284.855469 261.898438 282.824219 C 261.898438 281.714844 261.5625 280.683594 260.992188 279.832031 L 291.683594 245.917969 C 292.097656 246.1875 292.535156 246.429688 293 246.625 L 271.4375 329.015625 L 271.382812 329.015625 C 270.957031 329.015625 270.546875 329.070312 270.148438 329.164062 Z M 276.746094 334.683594 C 276.75 334.589844 276.761719 334.492188 276.761719 334.394531 C 276.761719 333.4375 276.507812 332.539062 276.070312 331.761719 L 303.214844 295.3125 C 303.820312 295.546875 304.480469 295.6875 305.171875 295.6875 C 307.148438 295.6875 308.867188 294.617188 309.804688 293.035156 L 335.515625 299.648438 C 335.613281 301.589844 336.328125 303.363281 337.488281 304.769531 C 325.1875 317.234375 308.808594 328.382812 287.5625 333.121094 C 283.890625 333.945312 280.28125 334.457031 276.746094 334.683594 Z M 299.796875 290.304688 C 299.796875 291.640625 300.285156 292.859375 301.085938 293.800781 L 274.242188 329.84375 C 274.148438 329.785156 274.058594 329.726562 273.964844 329.675781 L 295.527344 247.285156 C 295.828125 247.316406 296.132812 247.335938 296.449219 247.335938 L 296.480469 247.335938 L 302.980469 285.394531 C 301.101562 286.238281 299.796875 288.117188 299.796875 290.304688 Z M 296.449219 229.878906 C 295.378906 229.878906 294.363281 230.082031 293.421875 230.429688 L 274.105469 195.445312 C 275.109375 194.464844 275.734375 193.101562 275.734375 191.585938 C 275.734375 190.566406 275.445312 189.617188 274.953125 188.800781 L 307.316406 156.121094 C 309.65625 158.191406 312.421875 159.792969 315.460938 160.773438 L 297.371094 229.929688 C 297.066406 229.898438 296.757812 229.878906 296.449219 229.878906 Z M 244.179688 124.847656 L 257.339844 108.269531 L 267.664062 95.257812 C 268.894531 95.929688 270.308594 96.308594 271.816406 96.308594 C 273.40625 96.308594 274.894531 95.875 276.175781 95.128906 L 305.261719 123.738281 C 304.792969 124.269531 304.347656 124.824219 303.941406 125.398438 C 301.792969 128.347656 300.332031 131.828125 299.785156 135.601562 L 245.964844 130.898438 C 245.984375 130.660156 246.003906 130.417969 246.003906 130.171875 C 246.003906 128.164062 245.320312 126.320312 244.179688 124.847656 Z M 245.351562 133.46875 L 299.5625 138.203125 C 299.558594 138.433594 299.550781 138.667969 299.550781 138.898438 C 299.550781 141.292969 299.914062 143.601562 300.59375 145.773438 L 283.324219 152.277344 C 282.410156 150.621094 280.648438 149.503906 278.625 149.503906 C 277.128906 149.503906 275.78125 150.117188 274.804688 151.097656 L 245.3125 133.582031 C 245.328125 133.542969 245.339844 133.503906 245.351562 133.46875 Z M 279.339844 160.207031 C 281.96875 159.859375 284 157.609375 284 154.886719 L 284 154.8125 L 301.519531 148.214844 C 302.511719 150.445312 303.847656 152.496094 305.457031 154.289062 L 273.097656 186.96875 C 273.035156 186.929688 272.972656 186.886719 272.902344 186.851562 Z M 278.910156 82.507812 C 277.671875 80.78125 275.824219 79.523438 273.675781 79.054688 L 274.828125 58.441406 C 277.027344 58.019531 278.742188 56.269531 279.117188 54.058594 L 323.652344 50.628906 C 323.792969 51.230469 323.992188 51.804688 324.246094 52.351562 Z M 226.851562 35.34375 C 227.289062 35.253906 227.734375 35.160156 228.179688 35.066406 C 236.585938 33.324219 245.457031 32.339844 254.703125 32.4375 C 279.671875 32.683594 303.53125 38.9375 323.652344 46.699219 C 323.550781 47.128906 323.484375 47.574219 323.453125 48.027344 L 278.917969 51.457031 C 278.203125 49.320312 276.195312 47.78125 273.820312 47.78125 C 271.863281 47.78125 270.152344 48.828125 269.210938 50.398438 L 227.523438 37.742188 L 226.796875 37.519531 C 226.855469 37.105469 226.902344 36.691406 226.902344 36.261719 C 226.902344 35.953125 226.882812 35.644531 226.851562 35.34375 Z M 226.042969 40.011719 L 226.96875 40.292969 L 268.453125 52.890625 C 268.445312 52.980469 268.441406 53.066406 268.441406 53.15625 C 268.441406 55.574219 270.035156 57.617188 272.226562 58.296875 L 271.074219 78.890625 C 269.03125 79.0625 267.195312 79.9375 265.800781 81.265625 L 226.523438 42.640625 L 225.234375 41.378906 C 225.546875 40.949219 225.8125 40.496094 226.042969 40.011719 Z M 210.316406 40.046875 C 211.136719 41.742188 212.480469 43.132812 214.148438 44 L 203.179688 76.09375 C 203.035156 76.078125 202.886719 76.066406 202.734375 76.066406 C 200.683594 76.066406 198.898438 77.214844 197.992188 78.90625 L 160.550781 74.351562 C 160.496094 72.507812 159.875 70.820312 158.851562 69.433594 C 169.851562 60.433594 187.777344 47.96875 210.316406 40.046875 Z M 230.148438 125.144531 L 159.738281 78.300781 C 159.941406 77.867188 160.109375 77.414062 160.242188 76.945312 L 197.351562 81.453125 C 197.355469 84.421875 199.765625 86.828125 202.734375 86.828125 C 203.394531 86.828125 204.023438 86.703125 204.609375 86.480469 L 230.828125 124.304688 C 230.585938 124.570312 230.355469 124.847656 230.148438 125.144531 Z M 232.859375 122.65625 L 206.757812 85.003906 C 207.597656 84.058594 208.109375 82.816406 208.109375 81.449219 C 208.109375 79.550781 207.132812 77.890625 205.65625 76.933594 L 216.617188 44.84375 C 217.125 44.929688 217.640625 44.988281 218.171875 44.988281 C 218.3125 44.988281 218.449219 44.976562 218.585938 44.964844 L 234.0625 122.0625 C 233.644531 122.230469 233.242188 122.429688 232.859375 122.65625 Z M 236.605469 121.476562 L 221.148438 44.457031 C 221.964844 44.164062 222.722656 43.75 223.402344 43.234375 L 226.023438 45.8125 L 264.1875 83.34375 C 263.488281 84.597656 263.089844 86.042969 263.089844 87.582031 C 263.089844 89.957031 264.039062 92.105469 265.578125 93.679688 L 255.058594 106.9375 L 242.289062 123.035156 C 240.867188 122.035156 239.144531 121.441406 237.277344 121.441406 C 237.046875 121.441406 236.828125 121.460938 236.605469 121.476562 Z M 242.082031 137.453125 C 242.773438 136.992188 243.402344 136.433594 243.9375 135.796875 L 273.46875 153.34375 C 273.324219 153.832031 273.242188 154.347656 273.242188 154.886719 C 273.242188 157.1875 274.691406 159.144531 276.726562 159.914062 L 270.375 186.210938 L 270.355469 186.210938 C 269.921875 186.210938 269.496094 186.269531 269.085938 186.367188 Z M 251.960938 215.539062 C 258.664062 209.570312 263.917969 203.097656 267.855469 196.351562 C 268.605469 196.742188 269.453125 196.96875 270.355469 196.96875 C 270.871094 196.96875 271.371094 196.890625 271.847656 196.757812 L 291.136719 231.691406 C 289.0625 233.289062 287.722656 235.789062 287.722656 238.609375 C 287.722656 238.828125 287.734375 239.046875 287.75 239.261719 L 226.058594 253.386719 C 225.488281 252.574219 224.703125 251.929688 223.78125 251.53125 C 229.40625 239.703125 238.558594 227.488281 251.960938 215.539062 Z M 337.863281 293.261719 C 336.878906 294.308594 336.15625 295.59375 335.785156 297.023438 L 310.542969 290.527344 C 310.542969 290.453125 310.554688 290.382812 310.554688 290.304688 C 310.554688 287.460938 308.347656 285.140625 305.550781 284.949219 L 299.054688 246.9375 C 299.65625 246.75 300.222656 246.492188 300.761719 246.1875 Z M 300.949219 231.140625 C 300.609375 230.9375 300.257812 230.746094 299.894531 230.589844 L 317.992188 161.433594 C 319.460938 161.730469 320.980469 161.890625 322.539062 161.890625 C 325.078125 161.890625 327.523438 161.46875 329.804688 160.710938 L 337.738281 180.664062 C 336.382812 181.640625 335.496094 183.226562 335.496094 185.027344 C 335.496094 186.21875 335.890625 187.320312 336.546875 188.207031 Z M 339.769531 261.0625 L 304.625 241.636719 C 304.976562 240.691406 305.171875 239.675781 305.171875 238.609375 C 305.171875 236.378906 304.328125 234.347656 302.953125 232.808594 L 338.550781 189.875 C 338.949219 190.0625 339.375 190.214844 339.824219 190.304688 L 344.75 257.867188 C 342.734375 258.320312 340.992188 259.472656 339.769531 261.0625 Z M 366.042969 222.574219 C 359.582031 234.871094 353.195312 247.613281 348.726562 257.898438 C 348.285156 257.789062 347.828125 257.714844 347.359375 257.679688 L 342.429688 190.175781 C 342.839844 190.054688 343.222656 189.882812 343.589844 189.667969 L 363.484375 210.011719 L 366.535156 213.132812 C 366.03125 213.957031 365.734375 214.917969 365.734375 215.953125 C 365.734375 217.507812 366.402344 218.902344 367.457031 219.890625 C 366.984375 220.78125 366.507812 221.679688 366.042969 222.574219 Z M 372.355469 210.71875 C 371.957031 210.625 371.542969 210.570312 371.113281 210.570312 C 370.121094 210.570312 369.195312 210.839844 368.402344 211.308594 L 362.265625 205.035156 L 345.449219 187.839844 C 345.859375 187.179688 346.132812 186.425781 346.21875 185.617188 L 355.65625 184.335938 L 383.628906 180.53125 C 384.144531 182.292969 385.199219 183.820312 386.601562 184.929688 C 383.15625 191.035156 377.972656 200.316406 372.355469 210.71875 Z M 385.132812 172.707031 L 343.175781 149.039062 C 344.675781 145.980469 345.53125 142.539062 345.53125 138.898438 C 345.53125 136.597656 345.183594 134.371094 344.554688 132.273438 L 378.035156 120.085938 C 379.457031 122.679688 382.148438 124.457031 385.273438 124.613281 L 389.832031 169.636719 C 387.941406 170.121094 386.300781 171.214844 385.132812 172.707031 Z M 385.132812 172.707031 " fill-opacity="1" fill-rule="nonzero"/><path fill="#fff743" d="M 248.925781 79.730469 C 248.925781 80.097656 248.855469 80.453125 248.714844 80.792969 C 248.574219 81.132812 248.371094 81.433594 248.113281 81.695312 C 247.851562 81.957031 247.550781 82.15625 247.210938 82.296875 C 246.871094 82.4375 246.515625 82.507812 246.144531 82.507812 C 245.777344 82.507812 245.421875 82.4375 245.082031 82.296875 C 244.742188 82.15625 244.441406 81.957031 244.179688 81.695312 C 243.921875 81.433594 243.71875 81.132812 243.578125 80.792969 C 243.4375 80.453125 243.367188 80.097656 243.367188 79.730469 C 243.367188 79.359375 243.4375 79.007812 243.578125 78.664062 C 243.71875 78.324219 243.921875 78.023438 244.179688 77.765625 C 244.441406 77.503906 244.742188 77.300781 245.082031 77.160156 C 245.421875 77.019531 245.777344 76.949219 246.144531 76.949219 C 246.515625 76.949219 246.871094 77.019531 247.210938 77.160156 C 247.550781 77.300781 247.851562 77.503906 248.113281 77.765625 C 248.371094 78.023438 248.574219 78.324219 248.714844 78.664062 C 248.855469 79.007812 248.925781 79.359375 248.925781 79.730469 Z M 248.925781 79.730469 " fill-opacity="1" fill-rule="nonzero"/><path fill="#fff743" d="M 265.582031 40.644531 C 265.582031 41.054688 265.503906 41.449219 265.347656 41.824219 C 265.191406 42.203125 264.96875 42.539062 264.679688 42.828125 C 264.386719 43.117188 264.054688 43.339844 263.675781 43.5 C 263.296875 43.65625 262.902344 43.734375 262.492188 43.734375 C 262.082031 43.734375 261.6875 43.65625 261.3125 43.5 C 260.933594 43.339844 260.597656 43.117188 260.308594 42.828125 C 260.019531 42.539062 259.796875 42.203125 259.636719 41.824219 C 259.480469 41.449219 259.402344 41.054688 259.402344 40.644531 C 259.402344 40.234375 259.480469 39.839844 259.636719 39.460938 C 259.796875 39.082031 260.019531 38.75 260.308594 38.457031 C 260.597656 38.167969 260.933594 37.945312 261.3125 37.789062 C 261.6875 37.632812 262.082031 37.554688 262.492188 37.554688 C 262.902344 37.554688 263.296875 37.632812 263.675781 37.789062 C 264.054688 37.945312 264.386719 38.167969 264.679688 38.457031 C 264.96875 38.75 265.191406 39.082031 265.347656 39.460938 C 265.503906 39.839844 265.582031 40.234375 265.582031 40.644531 Z M 265.582031 40.644531 " fill-opacity="1" fill-rule="nonzero"/><path fill="#fff743" d="M 323.652344 15.582031 C 323.652344 16.136719 323.597656 16.6875 323.492188 17.230469 C 323.382812 17.773438 323.222656 18.300781 323.011719 18.8125 C 322.800781 19.324219 322.539062 19.808594 322.230469 20.269531 C 321.921875 20.730469 321.574219 21.15625 321.183594 21.550781 C 320.789062 21.941406 320.363281 22.289062 319.902344 22.597656 C 319.441406 22.90625 318.957031 23.167969 318.445312 23.378906 C 317.933594 23.589844 317.40625 23.75 316.863281 23.859375 C 316.320312 23.964844 315.769531 24.019531 315.214844 24.019531 C 314.660156 24.019531 314.113281 23.964844 313.570312 23.859375 C 313.027344 23.75 312.5 23.589844 311.988281 23.378906 C 311.476562 23.167969 310.988281 22.90625 310.527344 22.597656 C 310.066406 22.289062 309.640625 21.941406 309.25 21.550781 C 308.859375 21.15625 308.507812 20.730469 308.199219 20.269531 C 307.894531 19.808594 307.632812 19.324219 307.421875 18.8125 C 307.210938 18.300781 307.050781 17.773438 306.941406 17.230469 C 306.832031 16.6875 306.777344 16.136719 306.777344 15.582031 C 306.777344 15.027344 306.832031 14.480469 306.941406 13.9375 C 307.050781 13.394531 307.210938 12.867188 307.421875 12.355469 C 307.632812 11.84375 307.894531 11.355469 308.199219 10.894531 C 308.507812 10.433594 308.859375 10.007812 309.25 9.617188 C 309.640625 9.226562 310.066406 8.875 310.527344 8.566406 C 310.988281 8.261719 311.476562 8 311.988281 7.789062 C 312.5 7.578125 313.027344 7.417969 313.570312 7.308594 C 314.113281 7.199219 314.660156 7.144531 315.214844 7.144531 C 315.769531 7.144531 316.320312 7.199219 316.863281 7.308594 C 317.40625 7.417969 317.933594 7.578125 318.445312 7.789062 C 318.957031 8 319.441406 8.261719 319.902344 8.566406 C 320.363281 8.875 320.789062 9.226562 321.183594 9.617188 C 321.574219 10.007812 321.921875 10.433594 322.230469 10.894531 C 322.539062 11.355469 322.800781 11.84375 323.011719 12.355469 C 323.222656 12.867188 323.382812 13.394531 323.492188 13.9375 C 323.597656 14.480469 323.652344 15.027344 323.652344 15.582031 Z M 323.652344 15.582031 " fill-opacity="1" fill-rule="nonzero"/><path fill="#fff743" d="M 371.695312 37.558594 C 371.695312 38.011719 371.605469 38.449219 371.433594 38.867188 C 371.261719 39.285156 371.011719 39.65625 370.691406 39.976562 C 370.371094 40.296875 370 40.542969 369.582031 40.71875 C 369.164062 40.890625 368.726562 40.980469 368.273438 40.980469 C 367.820312 40.980469 367.382812 40.890625 366.964844 40.71875 C 366.546875 40.542969 366.175781 40.296875 365.855469 39.976562 C 365.535156 39.65625 365.289062 39.285156 365.113281 38.867188 C 364.941406 38.449219 364.855469 38.011719 364.855469 37.558594 C 364.855469 37.105469 364.941406 36.667969 365.113281 36.25 C 365.289062 35.832031 365.535156 35.460938 365.855469 35.140625 C 366.175781 34.820312 366.546875 34.570312 366.964844 34.398438 C 367.382812 34.226562 367.820312 34.136719 368.273438 34.136719 C 368.726562 34.136719 369.164062 34.226562 369.582031 34.398438 C 370 34.570312 370.371094 34.820312 370.691406 35.140625 C 371.011719 35.460938 371.261719 35.832031 371.433594 36.25 C 371.605469 36.667969 371.695312 37.105469 371.695312 37.558594 Z M 371.695312 37.558594 " fill-opacity="1" fill-rule="nonzero"/><path fill="#fff743" d="M 324.25 182.296875 C 324.25 182.65625 324.179688 183.003906 324.042969 183.335938 C 323.90625 183.667969 323.707031 183.960938 323.453125 184.21875 C 323.199219 184.472656 322.90625 184.667969 322.574219 184.804688 C 322.242188 184.945312 321.894531 185.011719 321.535156 185.011719 C 321.175781 185.011719 320.828125 184.945312 320.496094 184.804688 C 320.164062 184.667969 319.867188 184.472656 319.613281 184.21875 C 319.359375 183.960938 319.164062 183.667969 319.023438 183.335938 C 318.886719 183.003906 318.820312 182.65625 318.820312 182.296875 C 318.820312 181.9375 318.886719 181.589844 319.023438 181.257812 C 319.164062 180.925781 319.359375 180.632812 319.613281 180.375 C 319.867188 180.121094 320.164062 179.925781 320.496094 179.789062 C 320.828125 179.648438 321.175781 179.582031 321.535156 179.582031 C 321.894531 179.582031 322.242188 179.648438 322.574219 179.789062 C 322.90625 179.925781 323.199219 180.121094 323.453125 180.375 C 323.707031 180.632812 323.90625 180.925781 324.042969 181.257812 C 324.179688 181.589844 324.25 181.9375 324.25 182.296875 Z M 324.25 182.296875 " fill-opacity="1" fill-rule="nonzero"/><path fill="#fff743" d="M 333.554688 225.59375 C 333.554688 225.832031 333.507812 226.0625 333.417969 226.285156 C 333.324219 226.503906 333.195312 226.703125 333.023438 226.871094 C 332.855469 227.039062 332.660156 227.171875 332.4375 227.261719 C 332.214844 227.355469 331.984375 227.402344 331.746094 227.402344 C 331.503906 227.402344 331.273438 227.355469 331.054688 227.261719 C 330.832031 227.171875 330.636719 227.039062 330.464844 226.871094 C 330.296875 226.703125 330.167969 226.503906 330.074219 226.285156 C 329.984375 226.0625 329.9375 225.832031 329.9375 225.59375 C 329.9375 225.351562 329.984375 225.121094 330.074219 224.898438 C 330.167969 224.679688 330.296875 224.484375 330.464844 224.3125 C 330.636719 224.144531 330.832031 224.011719 331.054688 223.921875 C 331.273438 223.828125 331.503906 223.78125 331.746094 223.78125 C 331.984375 223.78125 332.214844 223.828125 332.4375 223.921875 C 332.660156 224.011719 332.855469 224.144531 333.023438 224.3125 C 333.195312 224.484375 333.324219 224.679688 333.417969 224.898438 C 333.507812 225.121094 333.554688 225.351562 333.554688 225.59375 Z M 333.554688 225.59375 " fill-opacity="1" fill-rule="nonzero"/><path fill="#fff743" d="M 265.582031 226.875 C 265.582031 227.28125 265.503906 227.675781 265.347656 228.054688 C 265.191406 228.433594 264.96875 228.769531 264.679688 229.058594 C 264.386719 229.347656 264.054688 229.570312 263.675781 229.726562 C 263.296875 229.882812 262.902344 229.964844 262.492188 229.964844 C 262.082031 229.964844 261.6875 229.882812 261.3125 229.726562 C 260.933594 229.570312 260.597656 229.347656 260.308594 229.058594 C 260.019531 228.769531 259.796875 228.433594 259.636719 228.054688 C 259.480469 227.675781 259.402344 227.28125 259.402344 226.875 C 259.402344 226.464844 259.480469 226.070312 259.636719 225.691406 C 259.796875 225.3125 260.019531 224.976562 260.308594 224.6875 C 260.597656 224.398438 260.933594 224.175781 261.3125 224.019531 C 261.6875 223.863281 262.082031 223.78125 262.492188 223.78125 C 262.902344 223.78125 263.296875 223.863281 263.675781 224.019531 C 264.054688 224.175781 264.386719 224.398438 264.679688 224.6875 C 264.96875 224.976562 265.191406 225.3125 265.347656 225.691406 C 265.503906 226.070312 265.582031 226.464844 265.582031 226.875 Z M 265.582031 226.875 " fill-opacity="1" fill-rule="nonzero"/><path fill="#fff743" d="M 315.460938 88.09375 C 315.460938 88.378906 315.433594 88.660156 315.378906 88.941406 C 315.324219 89.21875 315.242188 89.492188 315.132812 89.753906 C 315.023438 90.019531 314.890625 90.269531 314.730469 90.503906 C 314.574219 90.742188 314.390625 90.960938 314.191406 91.164062 C 313.988281 91.363281 313.769531 91.542969 313.53125 91.703125 C 313.296875 91.863281 313.046875 91.996094 312.78125 92.105469 C 312.519531 92.214844 312.246094 92.296875 311.96875 92.351562 C 311.6875 92.40625 311.40625 92.433594 311.121094 92.433594 C 310.835938 92.433594 310.554688 92.40625 310.273438 92.351562 C 309.992188 92.296875 309.722656 92.214844 309.460938 92.105469 C 309.195312 91.996094 308.945312 91.863281 308.707031 91.703125 C 308.472656 91.542969 308.253906 91.363281 308.050781 91.164062 C 307.847656 90.960938 307.667969 90.742188 307.511719 90.503906 C 307.351562 90.269531 307.21875 90.019531 307.109375 89.753906 C 307 89.492188 306.917969 89.21875 306.863281 88.941406 C 306.808594 88.660156 306.777344 88.378906 306.777344 88.09375 C 306.777344 87.808594 306.808594 87.527344 306.863281 87.246094 C 306.917969 86.964844 307 86.695312 307.109375 86.429688 C 307.21875 86.167969 307.351562 85.917969 307.511719 85.679688 C 307.667969 85.445312 307.847656 85.222656 308.050781 85.023438 C 308.253906 84.820312 308.472656 84.640625 308.707031 84.484375 C 308.945312 84.324219 309.195312 84.191406 309.460938 84.082031 C 309.722656 83.972656 309.992188 83.890625 310.273438 83.835938 C 310.554688 83.777344 310.835938 83.75 311.121094 83.75 C 311.40625 83.75 311.6875 83.777344 311.96875 83.835938 C 312.246094 83.890625 312.519531 83.972656 312.78125 84.082031 C 313.046875 84.191406 313.296875 84.324219 313.53125 84.484375 C 313.769531 84.640625 313.988281 84.820312 314.191406 85.023438 C 314.390625 85.222656 314.574219 85.445312 314.730469 85.679688 C 314.890625 85.917969 315.023438 86.167969 315.132812 86.429688 C 315.242188 86.695312 315.324219 86.964844 315.378906 87.246094 C 315.433594 87.527344 315.460938 87.808594 315.460938 88.09375 Z M 315.460938 88.09375 " fill-opacity="1" fill-rule="nonzero"/><g mask="url(#9e2272fce1)"><g transform="matrix(1, 0, 0, 1, 102, 121)"><g clip-path="url(#1b4f0c6b1b)"><g clip-path="url(#1ea66e691a)"><path fill="#fff743" d="M 87.4375 268.210938 C 89.945312 264.847656 128.152344 212.734375 92.664062 208.46875 C 91.804688 208.367188 90.890625 208.292969 89.941406 208.25 C 48.527344 206.277344 31.96875 206.367188 38.441406 182.878906 C 42.484375 168.195312 37.351562 161.65625 32.933594 158.816406 C 30.785156 157.441406 30.617188 154.347656 32.535156 152.65625 L 39.878906 146.203125 L 30.277344 143.730469 C 26.40625 142.742188 24.308594 138.519531 25.902344 134.851562 C 27.855469 130.351562 29.007812 124.921875 24.535156 122.949219 C 20.125 121 12.265625 118.421875 5.988281 116.464844 C 1.546875 115.078125 -0.0546875 109.632812 2.917969 106.066406 C 13.207031 93.746094 32.554688 69.320312 36.039062 56.066406 C 39.519531 42.859375 31.785156 19.332031 27.996094 1.265625 C 27.992188 1.253906 27.992188 1.246094 27.992188 1.242188 C 27.992188 1.234375 27.992188 1.234375 27.992188 1.234375 C 27.992188 1.234375 27.996094 1.234375 28 1.242188 L 86.109375 16.257812 L 107.046875 21.664062 C 111.984375 22.933594 116.335938 25.863281 119.382812 29.953125 L 119.785156 30.480469 L 145.007812 63.28125 C 147.109375 66.011719 147.550781 69.675781 146.160156 72.835938 L 137.074219 93.46875 C 137.074219 93.46875 55.195312 173.976562 114.675781 205.292969 C 174.15625 236.609375 196.652344 206.222656 255.21875 215.152344 C 202.386719 215.652344 147.035156 230.019531 87.308594 268.382812 C 87.3125 268.378906 87.316406 268.367188 87.324219 268.363281 Z M 87.4375 268.210938 " fill-opacity="1" fill-rule="nonzero"/></g></g></g></g><g mask="url(#b5c963e25a)"><g transform="matrix(1, 0, 0, 1, 102, 121)"><g clip-path="url(#d5f29e12e6)"><g clip-path="url(#e5c847a5b6)"><path fill="#000000" d="M 109.96875 120.804688 C 84.765625 169.09375 86.988281 195.304688 92.664062 208.46875 C 91.804688 208.367188 90.890625 208.292969 89.941406 208.25 C 48.527344 206.277344 31.96875 206.367188 38.441406 182.878906 C 42.484375 168.195312 37.351562 161.65625 32.933594 158.816406 C 30.785156 157.441406 30.617188 154.347656 32.535156 152.65625 L 39.878906 146.203125 L 30.277344 143.730469 C 26.40625 142.742188 24.308594 138.519531 25.902344 134.851562 C 27.855469 130.351562 29.007812 124.921875 24.535156 122.949219 C 20.125 121 12.265625 118.421875 5.988281 116.464844 C 1.546875 115.078125 -0.0546875 109.632812 2.917969 106.066406 C 13.207031 93.746094 32.554688 69.320312 36.039062 56.066406 C 39.519531 42.859375 31.785156 19.332031 27.996094 1.265625 C 27.992188 1.253906 27.992188 1.246094 27.992188 1.242188 C 27.992188 1.234375 27.992188 1.234375 27.992188 1.234375 C 27.992188 1.234375 27.996094 1.234375 28 1.242188 L 86.109375 16.257812 L 107.046875 21.664062 C 111.984375 22.933594 116.335938 25.863281 119.382812 29.953125 L 119.785156 30.480469 C 128.648438 46.09375 134.167969 74.441406 109.96875 120.804688 Z M 109.96875 120.804688 " fill-opacity="1" fill-rule="nonzero"/></g></g></g></g><g mask="url(#d04f929ae2)"><g transform="matrix(1, 0, 0, 1, 102, 121)"><g clip-path="url(#ec209e5214)"><g clip-path="url(#f08c8e1903)"><path fill="#fff743" d="M 87.4375 268.210938 C 90.003906 264.765625 130.035156 210.164062 89.941406 208.25 C 48.527344 206.277344 31.96875 206.367188 38.441406 182.878906 C 42.484375 168.195312 37.351562 161.65625 32.933594 158.816406 C 30.785156 157.441406 30.617188 154.347656 32.535156 152.65625 L 39.878906 146.203125 L 30.277344 143.730469 C 26.40625 142.742188 24.308594 138.519531 25.902344 134.851562 C 27.855469 130.351562 29.007812 124.921875 24.535156 122.949219 C 20.125 121 12.265625 118.421875 5.988281 116.464844 C 1.546875 115.078125 -0.0546875 109.632812 2.917969 106.066406 C 13.207031 93.746094 32.554688 69.320312 36.039062 56.066406 C 39.519531 42.859375 31.785156 19.332031 27.996094 1.265625 C 27.992188 1.253906 27.992188 1.246094 27.992188 1.242188 C 27.992188 1.234375 27.992188 1.234375 27.992188 1.234375 C 27.992188 1.234375 27.996094 1.234375 28 1.242188 L 86.109375 16.257812 L 93.671875 27.839844 C 107.515625 49.039062 109.179688 75.96875 98.050781 98.710938 L 85.394531 124.585938 C 70.621094 154.792969 85.28125 191.136719 116.878906 202.640625 C 130.5 207.597656 134.039062 225.222656 123.382812 235.054688 Z M 87.4375 268.210938 " fill-opacity="1" fill-rule="nonzero"/></g></g></g></g><g mask="url(#1e8a1a39f5)"><g transform="matrix(1, 0, 0, 1, 148, 87)"><g clip-path="url(#48e27f2f39)"><g clip-path="url(#e113fe5a77)"><path fill="#000000" d="M 105.722656 106.90625 C 107.972656 103.742188 108.058594 99.519531 105.929688 96.269531 L 78.722656 54.71875 C 76.789062 51.761719 74.179688 49.304688 71.113281 47.550781 L 0.589844 7.242188 C 7.503906 4.292969 14.285156 2.074219 20.894531 0.527344 L 81.464844 44.507812 C 83.238281 45.792969 84.6875 47.476562 85.699219 49.425781 L 108.878906 94.171875 C 111.589844 99.402344 110.761719 105.765625 106.804688 110.125 L 91.074219 127.464844 Z M 105.722656 106.90625 " fill-opacity="1" fill-rule="nonzero"/></g></g></g></g><path fill="#fff743" d="M 253.722656 193.90625 C 255.972656 190.742188 256.058594 186.519531 253.929688 183.269531 L 226.722656 141.71875 C 224.789062 138.761719 222.179688 136.304688 219.113281 134.550781 L 148.589844 94.242188 C 155.503906 91.292969 162.285156 89.074219 168.894531 87.527344 L 229.464844 131.507812 C 231.238281 132.792969 232.6875 134.476562 233.699219 136.425781 L 256.878906 181.171875 C 259.589844 186.402344 258.761719 192.765625 254.804688 197.125 L 239.074219 214.464844 Z M 253.722656 193.90625 " fill-opacity="1" fill-rule="nonzero"/><g mask="url(#fa8992718c)"><g transform="matrix(1, 0, 0, 1, 102, 121)"><g clip-path="url(#072d0179c6)"><g clip-path="url(#f9003dfa1f)"><path fill="#fff743" d="M 118.769531 224.605469 C 118.769531 229.226562 117.1875 233.914062 113.824219 237.792969 L 87.4375 268.210938 C 89.640625 265.253906 119.429688 224.628906 102.503906 211.949219 C 101.488281 211.183594 100.300781 210.523438 98.925781 209.976562 C 96.523438 209.023438 93.558594 208.421875 89.941406 208.25 C 48.527344 206.277344 31.96875 206.367188 38.441406 182.878906 C 42.484375 168.195312 37.351562 161.65625 32.933594 158.816406 C 30.785156 157.441406 30.617188 154.347656 32.535156 152.65625 L 39.878906 146.203125 L 30.277344 143.730469 C 26.40625 142.742188 24.308594 138.519531 25.902344 134.851562 C 27.855469 130.351562 29.007812 124.921875 24.535156 122.949219 C 20.125 120.996094 12.265625 118.421875 5.988281 116.464844 C 1.546875 115.078125 -0.0546875 109.632812 2.917969 106.066406 C 10.8125 96.613281 24.039062 80.035156 31.34375 66.839844 C 33.5625 62.839844 35.230469 59.152344 36.039062 56.066406 C 39.519531 42.859375 31.785156 19.332031 27.996094 1.265625 C 27.992188 1.253906 27.992188 1.246094 27.992188 1.242188 C 27.996094 1.242188 28 1.242188 28 1.242188 L 55.644531 35.644531 C 72.394531 56.488281 77.988281 84.160156 70.652344 109.871094 L 65.457031 128.058594 C 56.117188 160.773438 74.128906 195.054688 106.367188 205.925781 C 114.316406 209.253906 118.769531 216.84375 118.769531 224.605469 Z M 118.769531 224.605469 " fill-opacity="1" fill-rule="nonzero"/></g></g></g></g><path fill="#fff743" d="M 200.925781 330.976562 C 198.523438 330.023438 195.558594 329.421875 191.941406 329.25 C 150.527344 327.277344 133.96875 327.367188 140.441406 303.878906 C 144.484375 289.195312 139.351562 282.65625 134.933594 279.816406 C 132.785156 278.441406 132.617188 275.347656 134.535156 273.65625 L 141.878906 267.203125 L 132.277344 264.730469 C 128.40625 263.742188 126.308594 259.519531 127.902344 255.851562 C 129.855469 251.351562 131.007812 245.921875 126.535156 243.949219 C 122.125 242 114.265625 239.421875 107.988281 237.464844 C 103.546875 236.078125 101.945312 230.632812 104.917969 227.066406 C 112.8125 217.613281 126.039062 201.035156 133.34375 187.839844 C 144.722656 202.898438 151.183594 221.273438 151.558594 240.421875 L 151.953125 260.375 C 152.488281 287.667969 167.554688 312.601562 191.460938 325.769531 Z M 200.925781 330.976562 " fill-opacity="1" fill-rule="nonzero"/><g mask="url(#e48d87f83e)"><g transform="matrix(1, 0, 0, 1, 225, 29)"><g clip-path="url(#ee09878b85)"><g clip-path="url(#4c92a7b9f5)"><path fill="#fff743" d="M 167.425781 140.375 L 162.867188 95.351562 C 166.640625 94.390625 169.429688 90.980469 169.429688 86.90625 C 169.429688 82.230469 165.75 78.425781 161.128906 78.199219 L 158.601562 53.203125 C 160.824219 52.183594 162.320312 49.851562 162.089844 47.195312 C 161.847656 44.351562 159.5625 42.019531 156.726562 41.730469 C 155.226562 41.574219 153.820312 41.972656 152.691406 42.742188 C 146.527344 38.585938 134.714844 31.128906 119.25 23.699219 C 118.054688 23.125 116.824219 22.550781 115.558594 21.964844 C 115.980469 20.421875 116.03125 18.726562 115.410156 16.929688 C 114.25 13.582031 111.191406 11.152344 107.652344 10.949219 C 104.242188 10.757812 101.230469 12.53125 99.632812 15.234375 C 80.003906 7.699219 55.539062 1.082031 29.730469 0.824219 C 21.199219 0.753906 12.585938 1.585938 3.925781 3.308594 C 3.664062 4.214844 3.414062 5.136719 3.179688 6.066406 C 11.585938 4.324219 20.457031 3.339844 29.703125 3.4375 C 54.671875 3.683594 78.53125 9.9375 98.652344 17.699219 C 98.550781 18.128906 98.484375 18.574219 98.453125 19.027344 L 53.917969 22.457031 C 53.203125 20.320312 51.195312 18.78125 48.820312 18.78125 C 46.863281 18.78125 45.152344 19.828125 44.210938 21.398438 L 2.523438 8.742188 C 2.324219 9.582031 2.136719 10.4375 1.96875 11.292969 L 43.453125 23.890625 C 43.445312 23.980469 43.441406 24.066406 43.441406 24.15625 C 43.441406 26.574219 45.035156 28.617188 47.226562 29.296875 L 46.074219 49.890625 C 44.035156 50.0625 42.195312 50.9375 40.800781 52.265625 L 1.523438 13.640625 C 1.335938 14.695312 1.167969 15.75 1.023438 16.8125 L 39.1875 54.34375 C 38.488281 55.597656 38.089844 57.042969 38.089844 58.582031 C 38.089844 60.957031 39.039062 63.105469 40.578125 64.679688 L 30.058594 77.9375 C 30.800781 78.386719 31.558594 78.832031 32.339844 79.269531 L 42.664062 66.257812 C 43.894531 66.929688 45.308594 67.308594 46.816406 67.308594 C 48.40625 67.308594 49.894531 66.875 51.175781 66.128906 L 80.261719 94.738281 C 79.792969 95.269531 79.347656 95.824219 78.941406 96.398438 C 93.714844 103.007812 105.359375 113.097656 114.488281 125.417969 C 115.375 124.457031 116.179688 123.417969 116.886719 122.308594 L 158.847656 145.976562 C 158.496094 146.90625 158.296875 147.902344 158.28125 148.945312 L 129.660156 152.839844 C 129.996094 153.667969 130.332031 154.5 130.65625 155.335938 L 158.628906 151.53125 C 159.144531 153.292969 160.199219 154.820312 161.601562 155.929688 C 158.15625 162.035156 152.972656 171.316406 147.355469 181.71875 C 146.957031 181.625 146.542969 181.570312 146.113281 181.570312 C 145.121094 181.570312 144.195312 181.839844 143.402344 182.308594 L 137.265625 176.035156 C 137.691406 177.6875 138.097656 179.347656 138.484375 181.011719 C 139.449219 185.164062 140.296875 189.363281 141.042969 193.574219 C 141.292969 194.988281 141.53125 196.410156 141.757812 197.832031 C 142.746094 195.929688 143.746094 194.027344 144.742188 192.148438 C 145.800781 192.425781 146.980469 192.425781 148.230469 191.867188 C 150.050781 191.046875 151.347656 189.304688 151.480469 187.316406 C 151.597656 185.5625 150.867188 183.980469 149.671875 182.921875 C 155.265625 172.558594 160.433594 163.304688 163.871094 157.21875 C 165.121094 157.703125 166.507812 157.914062 167.964844 157.753906 C 172.210938 157.273438 175.5625 153.675781 175.722656 149.402344 C 175.894531 144.582031 172.152344 140.605469 167.425781 140.375 Z M 156.035156 53.753906 L 158.53125 78.460938 C 157.117188 78.824219 155.839844 79.535156 154.796875 80.496094 L 128.011719 58.996094 C 128.328125 58.308594 128.507812 57.550781 128.507812 56.746094 C 128.507812 56.597656 128.5 56.457031 128.488281 56.3125 L 150.566406 50.167969 C 151.5 52.265625 153.59375 53.734375 156.035156 53.753906 Z M 114.46875 24.402344 C 131.363281 32.210938 144.238281 40.242188 150.882812 44.683594 C 150.375 45.539062 150.078125 46.535156 150.054688 47.601562 L 127.644531 53.835938 C 126.691406 52.351562 125.023438 51.371094 123.128906 51.371094 C 122.78125 51.371094 122.441406 51.40625 122.117188 51.46875 L 111.726562 27.082031 C 112.828125 26.402344 113.761719 25.488281 114.46875 24.402344 Z M 48.675781 50.054688 L 49.828125 29.441406 C 52.027344 29.019531 53.742188 27.269531 54.117188 25.058594 L 98.652344 21.628906 C 98.792969 22.230469 98.992188 22.804688 99.246094 23.351562 L 53.910156 53.507812 C 52.671875 51.78125 50.824219 50.523438 48.675781 50.054688 Z M 97.539062 86.90625 C 91.589844 86.90625 86.171875 89.164062 82.089844 92.871094 L 53.222656 64.488281 C 54.660156 62.933594 55.539062 60.863281 55.539062 58.582031 C 55.539062 57.625 55.382812 56.707031 55.101562 55.851562 L 100.695312 25.523438 C 101.8125 26.753906 103.277344 27.660156 104.9375 28.09375 L 98.671875 86.9375 C 98.292969 86.917969 97.917969 86.90625 97.539062 86.90625 Z M 101.265625 87.214844 L 107.535156 28.371094 C 108.148438 28.34375 108.75 28.25 109.328125 28.105469 L 119.746094 52.566406 C 118.527344 53.554688 117.75 55.058594 117.75 56.746094 C 117.75 58.289062 118.40625 59.679688 119.445312 60.660156 L 106.195312 88.597656 C 104.632812 87.960938 102.980469 87.496094 101.265625 87.214844 Z M 108.554688 89.71875 L 121.726562 61.9375 C 122.175781 62.054688 122.644531 62.128906 123.128906 62.128906 C 124.347656 62.128906 125.472656 61.714844 126.378906 61.03125 L 153.160156 82.527344 C 152.410156 83.816406 151.972656 85.3125 151.972656 86.90625 C 151.972656 87.5 152.035156 88.074219 152.144531 88.632812 L 118.664062 100.820312 C 116.625 96.085938 113.046875 92.171875 108.554688 89.71875 Z M 160.132812 143.707031 L 118.175781 120.039062 C 119.675781 116.980469 120.53125 113.539062 120.53125 109.898438 C 120.53125 107.597656 120.183594 105.371094 119.554688 103.273438 L 153.035156 91.085938 C 154.457031 93.679688 157.148438 95.457031 160.273438 95.613281 L 164.832031 140.636719 C 162.941406 141.121094 161.300781 142.214844 160.132812 143.707031 Z M 160.132812 143.707031 " fill-opacity="1" fill-rule="nonzero"/></g></g></g></g></svg>